<svg width="512" height="512" viewBox="0 0 512 512" fill="none" xmlns="http://www.w3.org/2000/svg">
<rect width="512" height="512" rx="64" fill="#4255FF"/>
<path d="M358.912 78.512C362.24 83.376 365.824 89.136 369.664 95.792C373.76 102.192 377.6 108.592 381.184 114.992C384.768 121.392 387.584 126.768 389.632 131.12L358.528 144.176C354.688 136.496 349.952 127.664 344.32 117.68C338.944 107.696 333.696 98.864 328.576 91.184L358.912 78.512ZM407.296 65.072C410.88 69.936 414.592 75.568 418.432 81.968C422.272 88.368 425.984 94.768 429.568 101.168C433.408 107.312 436.352 112.688 438.4 117.296L408.064 130.352C403.968 122.416 399.104 113.456 393.472 103.472C387.84 93.488 382.336 84.912 376.96 77.744L407.296 65.072ZM376.576 146.864C375.04 149.168 372.736 152.752 369.664 157.616C366.848 162.48 364.672 166.96 363.136 171.056C357.76 183.088 351.104 196.528 343.168 211.376C335.488 226.224 326.656 241.2 316.672 256.304C306.944 271.408 296.576 285.36 285.568 298.16C271.232 314.544 255.36 330.544 237.952 346.16C220.8 361.776 202.624 376.24 183.424 389.552C164.48 402.608 145.024 413.872 125.056 423.344L85.504 381.872C106.24 373.936 126.336 363.952 145.792 351.92C165.248 339.888 183.296 326.832 199.936 312.752C216.576 298.672 230.912 284.976 242.944 271.664C251.392 262.192 259.328 251.952 266.752 240.944C274.432 229.68 281.216 218.672 287.104 207.92C292.992 196.912 297.344 186.928 300.16 177.968C297.6 177.968 292.992 177.968 286.336 177.968C279.68 177.968 271.872 177.968 262.912 177.968C254.208 177.968 244.992 177.968 235.264 177.968C225.536 177.968 216.192 177.968 207.232 177.968C198.528 177.968 190.848 177.968 184.192 177.968C177.536 177.968 172.8 177.968 169.984 177.968C164.608 177.968 158.976 178.096 153.088 178.352C147.2 178.608 141.568 178.992 136.192 179.504C131.072 180.016 127.104 180.272 124.288 180.272V125.744C128.128 126 132.864 126.384 138.496 126.896C144.128 127.408 149.76 127.792 155.392 128.048C161.28 128.304 166.144 128.432 169.984 128.432C173.312 128.432 178.56 128.432 185.728 128.432C192.896 128.432 201.088 128.432 210.304 128.432C219.52 128.432 228.992 128.432 238.72 128.432C248.704 128.432 258.176 128.432 267.136 128.432C276.352 128.432 284.288 128.432 290.944 128.432C297.6 128.432 302.464 128.432 305.536 128.432C313.984 128.432 321.664 128.048 328.576 127.28C335.744 126.256 341.248 125.104 345.088 123.824L376.576 146.864ZM290.56 266.288C300.544 274.224 311.168 283.44 322.432 293.936C333.696 304.432 344.832 315.312 355.84 326.576C366.848 337.84 376.96 348.72 386.176 359.216C395.648 369.456 403.584 378.416 409.984 386.096L366.208 424.496C356.736 411.184 345.856 397.488 333.568 383.408C321.536 369.328 308.736 355.376 295.168 341.552C281.856 327.472 268.288 314.16 254.464 301.616L290.56 266.288Z" fill="white"/>
</svg>
